# xmcd
#
# Track frame offsets: 
#        150
#        13989
#        26092
#        38306
#        52645
#        64701
#        79092
#        93760
#        111270
#        125696
#
# Disc length: 1816 seconds
#
# Revision: 0
# Processed by: cddbd v1.5.2PL0 Copyright (c) Steve Scherf et al.
# Submitted via: ExactAudioCopyFreeDBPlugin 1.0
#
DISCID=7207160a
DTITLE=Glen Campbell - 1979 - Highwayman
DYEAR=1979
DGENRE=
TTITLE0=Highwayman
TTITLE1=Hound Dog Man
TTITLE2=I Was Just Thinking About You
TTITLE3=Love Song
TTITLE4=My Prayer
TTITLE5=Tennessee Home
TTITLE6=Don't Lose Me in the Confusion
TTITLE7=Cajun Caper
TTITLE8=Darlin' Darlinka
TTITLE9=Fool Ya
EXTD=
EXTT0=
EXTT1=
EXTT2=
EXTT3=
EXTT4=
EXTT5=
EXTT6=
EXTT7=
EXTT8=
EXTT9=
PLAYORDER=
